<svg width="155" height="36" viewBox="0 0 155 36" fill="none" xmlns="http://www.w3.org/2000/svg">
<path d="M22.6802 15.4268L10.1403 27.9712C8.31001 29.8021 8.31001 32.7959 10.1403 34.6268C11.9706 36.4578 14.9633 36.4578 16.7936 34.6268L29.3335 22.0825L22.6802 15.4268Z" fill="#3C1F8C"/>
<path d="M22.6801 15.4268L15.2106 22.899C13.3803 24.7299 13.3803 27.7237 15.2106 29.5547C17.0409 31.3856 20.0336 31.3856 21.8639 29.5547L29.3334 22.0825L22.6801 15.4268Z" fill="#FB4B89"/>
<path d="M22.6804 15.4268L11.0309 27.0804C9.20063 28.9114 9.20063 31.9052 11.0309 33.7361C12.8612 35.567 15.854 35.567 17.6842 33.7361L27.5529 23.8639C28.5422 22.8742 28.5422 21.2907 27.5529 20.3258L22.6804 15.4268Z" fill="#5729D6"/>
<path d="M16.0502 8.84535L8.5807 1.3732C6.75042 -0.457732 3.75768 -0.457732 1.9274 1.3732C0.0971175 3.20413 0.0971175 6.19793 1.9274 8.02886L9.39692 15.501L16.0502 8.84535Z" fill="#3C1F8C"/>
<path d="M16.0524 8.84538L9.39908 2.18972C7.5688 0.358792 4.57604 0.358792 2.74576 2.18972C0.915477 4.02065 0.915477 7.01446 2.74576 8.84538L9.39908 15.5011L16.0524 8.84538Z" fill="#5729D6"/>
<path opacity="0.3" d="M16.0279 8.79589C16.0279 8.79589 9.72089 12.2598 2.52344 8.59794L9.37462 15.4515L16.0279 8.79589L14.1235 6.89073L16.0279 8.79589Z" fill="url(#paint0_radial_119_937)"/>
<path opacity="0.3" d="M27.6016 20.4C27.6016 20.4 21.1461 20.6722 14.2949 23.8392L22.6796 15.4515L27.6016 20.4Z" fill="url(#paint1_radial_119_937)"/>
<path d="M16.0273 22.1072L22.6559 15.4763L29.2845 22.1072C32.945 18.4453 32.945 12.4825 29.2845 8.8206C25.6239 5.15874 19.6631 5.15874 16.0026 8.8206L9.374 15.4515L2.74542 8.8206C-0.91514 12.4825 -0.91514 18.4453 2.74542 22.1072C6.40598 25.7691 12.342 25.7691 16.0273 22.1072Z" fill="#FF008F"/>
<path opacity="0.3" d="M4.87305 10.9732C4.87305 10.9732 7.56901 14.9072 6.456 18.4453L9.39929 15.501L4.87305 10.9732Z" fill="url(#paint2_radial_119_937)"/>
<path opacity="0.3" d="M27.603 20.4C27.603 20.4 24.4865 16.0454 25.5995 12.5072L22.6562 15.4515L27.1825 19.9794" fill="url(#paint3_radial_119_937)"/>
<path d="M52.0596 26H47.5908V8.6582H60.2988V12.5557H52.0596V15.2598H60.1211V19.1572H52.0596V26ZM66.2529 11.6416C65.7959 12.0986 65.25 12.3271 64.6152 12.3271C63.9805 12.3271 63.4388 12.0986 62.9902 11.6416C62.5501 11.1846 62.3301 10.6387 62.3301 10.0039C62.3301 9.36914 62.5501 8.83171 62.9902 8.3916C63.4388 7.94303 63.9805 7.71875 64.6152 7.71875C65.25 7.71875 65.7959 7.94303 66.2529 8.3916C66.71 8.83171 66.9385 9.36914 66.9385 10.0039C66.9385 10.6387 66.71 11.1846 66.2529 11.6416ZM66.6211 26H62.6221V13.4443H66.6211V26ZM73.5273 26H69.5283V8.6582H73.5273V26ZM76.168 30.8877L76.7393 27.3203C77.0439 27.4811 77.374 27.5615 77.7295 27.5615C78.6689 27.5615 79.2402 27.3288 79.4434 26.8633L79.7354 26.1777L74.7207 13.4443H78.9229L81.792 21.4043L84.623 13.4443H88.8633L83.1885 27.79C82.9938 28.3063 82.7568 28.7549 82.4775 29.1357C82.1982 29.5251 81.8978 29.8382 81.5762 30.0752C81.263 30.3206 80.9033 30.5153 80.4971 30.6592C80.0908 30.8115 79.6803 30.9173 79.2656 30.9766C78.8594 31.0443 78.3981 31.0824 77.8818 31.0908C77.1878 31.0908 76.6165 31.0231 76.168 30.8877ZM98.1309 26H93.6621V12.5557H88.7998V8.6582H102.968V12.5557H98.1309V26ZM107.449 26H103.45V13.4443H107.449V14.9805C107.881 14.4557 108.461 14.0114 109.188 13.6475C109.925 13.2835 110.653 13.1016 111.372 13.1016V16.9482C111.169 16.8805 110.843 16.8467 110.395 16.8467C109.844 16.8467 109.277 16.9525 108.693 17.1641C108.109 17.3757 107.695 17.6507 107.449 17.9893V26ZM119.23 26.3174C117.936 26.3174 116.772 26.055 115.739 25.5303C114.715 24.9971 113.898 24.2269 113.289 23.2197C112.688 22.2041 112.388 21.0319 112.388 19.7031C112.388 18.4928 112.667 17.3883 113.226 16.3896C113.784 15.391 114.571 14.5996 115.587 14.0156C116.611 13.4232 117.762 13.127 119.04 13.127C120.927 13.127 122.468 13.766 123.661 15.0439C124.863 16.3219 125.464 18.0146 125.464 20.1221V21.0361H116.526C116.679 21.637 117.026 22.1322 117.567 22.5215C118.109 22.9023 118.812 23.0928 119.675 23.0928C120.157 23.0928 120.703 22.9954 121.312 22.8008C121.922 22.5977 122.396 22.3395 122.734 22.0264L124.486 24.6543C123.885 25.196 123.111 25.6107 122.163 25.8984C121.215 26.1777 120.238 26.3174 119.23 26.3174ZM121.643 18.3066C121.583 17.7734 121.342 17.3164 120.919 16.9355C120.504 16.5462 119.878 16.3516 119.04 16.3516C118.244 16.3516 117.639 16.542 117.225 16.9229C116.818 17.3037 116.569 17.765 116.476 18.3066H121.643ZM133.475 26.3174C131.494 26.3174 129.856 25.7038 128.562 24.4766C127.275 23.2409 126.632 21.6497 126.632 19.7031C126.632 18.4167 126.928 17.2741 127.521 16.2754C128.113 15.2682 128.93 14.4938 129.971 13.9521C131.012 13.402 132.18 13.127 133.475 13.127C134.727 13.127 135.789 13.3555 136.661 13.8125C137.533 14.2611 138.185 14.807 138.616 15.4502L136.026 17.8623C135.485 17.0667 134.693 16.6689 133.652 16.6689C132.798 16.6689 132.095 16.944 131.545 17.4941C130.995 18.0358 130.72 18.7721 130.72 19.7031C130.72 20.6341 130.995 21.3789 131.545 21.9375C132.104 22.4961 132.806 22.7754 133.652 22.7754C134.66 22.7754 135.451 22.3691 136.026 21.5566L138.616 23.9941C138.176 24.6374 137.52 25.1875 136.648 25.6445C135.785 26.0931 134.727 26.3174 133.475 26.3174ZM153.33 26H148.392L145.637 21.5566L144.443 22.9785V26H140.444V8.6582H144.443V18.459L148.265 13.4443H153.102L148.48 19.1572L153.33 26Z" fill="white"/>
<defs>
<radialGradient id="paint0_radial_119_937" cx="0" cy="0" r="1" gradientUnits="userSpaceOnUse" gradientTransform="translate(6.96311 3.71179) rotate(102.91) scale(10.1555 17.7384)">
<stop offset="0.6629" stop-opacity="0"/>
<stop offset="0.6983" stop-opacity="0.0839989"/>
<stop offset="1" stop-opacity="0.8"/>
</radialGradient>
<radialGradient id="paint1_radial_119_937" cx="0" cy="0" r="1" gradientUnits="userSpaceOnUse" gradientTransform="translate(17.215 27.6822) rotate(-111.388) scale(8.30135 14.2763)">
<stop offset="0.6494" stop-opacity="0"/>
<stop offset="0.6519" stop-opacity="0.01"/>
<stop offset="1" stop-opacity="0.8"/>
</radialGradient>
<radialGradient id="paint2_radial_119_937" cx="0" cy="0" r="1" gradientUnits="userSpaceOnUse" gradientTransform="translate(3.32883 15.4897) rotate(-1.51121) scale(7.33858 5.55191)">
<stop offset="0.6629" stop-opacity="0"/>
<stop offset="0.6983" stop-opacity="0.0839989"/>
<stop offset="1" stop-opacity="0.8"/>
</radialGradient>
<radialGradient id="paint3_radial_119_937" cx="0" cy="0" r="1" gradientUnits="userSpaceOnUse" gradientTransform="translate(29.2092 15.8011) rotate(178.489) scale(8.00787 6.05826)">
<stop offset="0.6629" stop-opacity="0"/>
<stop offset="0.6983" stop-opacity="0.0839989"/>
<stop offset="1" stop-opacity="0.8"/>
</radialGradient>
</defs>
</svg>
