<svg width="24" height="24" viewBox="0 0 24 24" fill="none" xmlns="http://www.w3.org/2000/svg">
<g clip-path="url(#clip0_245_1416)">
<path d="M12 17V21C12 21.55 11.55 22 11 22H7C6.45 22 6 21.55 6 21C6 20.45 6.45 20 7 20H10V18H5C2.24 18 0 15.76 0 13V6C0 3.24 2.24 1 5 1H17C19.76 1 22 3.24 22 6C22 6.55 21.55 7 21 7C20.45 7 20 6.55 20 6C20 4.35 18.65 3 17 3H5C3.35 3 2 4.35 2 6V13C2 14.65 3.35 16 5 16H11C11.55 16 12 16.45 12 17ZM24 13V20C24 22.21 22.21 24 20 24H18C15.79 24 14 22.21 14 20V13C14 10.79 15.79 9 18 9H20C22.21 9 24 10.79 24 13ZM22 13C22 11.9 21.1 11 20 11H18C16.9 11 16 11.9 16 13V20C16 21.1 16.9 22 18 22H20C21.1 22 22 21.1 22 20V13Z" fill="white"/>
</g>
<defs>
<clipPath id="clip0_245_1416">
<rect width="24" height="24" fill="white"/>
</clipPath>
</defs>
</svg>
