<svg width="40" height="40" viewBox="0 0 40 40" fill="none" xmlns="http://www.w3.org/2000/svg">
<g clip-path="url(#clip0_552_492)">
<path d="M20 0C16.0444 0 12.1776 1.17298 8.8886 3.37061C5.59962 5.56824 3.03617 8.69181 1.52242 12.3463C0.00866572 16.0009 -0.387401 20.0222 0.384303 23.9018C1.15601 27.7814 3.06082 31.3451 5.85787 34.1421C8.65492 36.9392 12.2186 38.844 16.0982 39.6157C19.9778 40.3874 23.9992 39.9913 27.6537 38.4776C31.3082 36.9638 34.4318 34.4004 36.6294 31.1114C38.827 27.8224 40 23.9556 40 20C39.9943 14.6974 37.8853 9.61368 34.1358 5.8642C30.3863 2.11471 25.3026 0.00573514 20 0ZM20 36.6667C16.7037 36.6667 13.4813 35.6892 10.7405 33.8578C7.99969 32.0265 5.86348 29.4235 4.60202 26.3781C3.34056 23.3326 3.0105 19.9815 3.65359 16.7485C4.29667 13.5155 5.88402 10.5458 8.2149 8.21489C10.5458 5.88401 13.5155 4.29667 16.7485 3.65358C19.9815 3.01049 23.3326 3.34055 26.3781 4.60201C29.4235 5.86347 32.0265 7.99968 33.8578 10.7405C35.6892 13.4813 36.6667 16.7036 36.6667 20C36.6618 24.4188 34.9043 28.6552 31.7798 31.7798C28.6552 34.9043 24.4188 36.6618 20 36.6667Z" fill="#273ACF"/>
<path d="M19.9962 10C19.5541 10 19.1302 10.1756 18.8177 10.4882C18.5051 10.8007 18.3295 11.2246 18.3295 11.6667V18.875L12.7112 22.395C12.3354 22.6297 12.0683 23.0041 11.9686 23.4357C11.8689 23.8674 11.9448 24.3209 12.1795 24.6967C12.4142 25.0724 12.7886 25.3395 13.2202 25.4392C13.6519 25.5389 14.1054 25.463 14.4812 25.2283L20.8812 21.2283C21.123 21.0768 21.3218 20.8658 21.4587 20.6154C21.5956 20.365 21.6659 20.0837 21.6628 19.7983V11.6667C21.6628 11.2246 21.4872 10.8007 21.1747 10.4882C20.8621 10.1756 20.4382 10 19.9962 10Z" fill="#273ACF"/>
</g>
<defs>
<clipPath id="clip0_552_492">
<rect width="40" height="40" fill="white"/>
</clipPath>
</defs>
</svg>
