<svg width="40" height="40" viewBox="0 0 40 40" fill="none" xmlns="http://www.w3.org/2000/svg">
<g clip-path="url(#clip0_552_301)">
<path d="M26.668 38.3333C26.668 39.2533 25.923 40 25.0013 40H10.0013C5.4063 40 1.66797 36.2617 1.66797 31.6667V8.33333C1.66797 3.73833 5.4063 0 10.0013 0H17.5263C20.6413 0 23.5713 1.21333 25.7763 3.41667L31.583 9.22667C32.0346 9.67833 32.4546 10.1733 32.8296 10.6983C33.3646 11.4467 33.1913 12.4883 32.443 13.0233C31.6946 13.5567 30.6513 13.385 30.118 12.635C29.8496 12.26 29.5496 11.905 29.228 11.585L23.4196 5.775C22.8896 5.245 22.3013 4.79667 21.668 4.43333V11.6667C21.668 12.585 22.4146 13.3333 23.3346 13.3333H28.3346C29.2563 13.3333 30.0013 14.08 30.0013 15C30.0013 15.92 29.2563 16.6667 28.3346 16.6667H23.3346C20.578 16.6667 18.3346 14.4233 18.3346 11.6667V3.37167C18.068 3.34667 17.798 3.33333 17.5263 3.33333H10.0013C7.24464 3.33333 5.0013 5.57667 5.0013 8.33333V31.6667C5.0013 34.4233 7.24464 36.6667 10.0013 36.6667H25.0013C25.923 36.6667 26.668 37.4133 26.668 38.3333ZM36.143 27.1117L31.0746 26.2667C30.453 26.1633 30.0013 25.63 30.0013 25C30.0013 24.0817 30.748 23.3333 31.668 23.3333H35.448C36.0413 23.3333 36.5946 23.6533 36.893 24.1667C37.3513 24.9633 38.368 25.235 39.1696 24.775C39.9663 24.3133 40.2396 23.295 39.7763 22.4983C38.8863 20.9567 37.2263 19.9983 35.4463 19.9983H34.9996V18.3317C34.9996 17.4117 34.2546 16.665 33.333 16.665C32.4113 16.665 31.6663 17.4117 31.6663 18.3317V19.9983C28.9096 19.9983 26.6663 22.2417 26.6663 24.9983C26.6663 27.265 28.2896 29.1817 30.5246 29.5533L35.593 30.3983C36.2146 30.5017 36.6663 31.035 36.6663 31.665C36.6663 32.5833 35.9196 33.3317 34.9996 33.3317H31.2196C30.6263 33.3317 30.073 33.0117 29.7746 32.4983C29.3163 31.7 28.298 31.4283 27.498 31.89C26.7013 32.3517 26.428 33.37 26.8913 34.1667C27.7813 35.7083 29.4413 36.665 31.2213 36.665H31.668V38.3317C31.668 39.2517 32.413 39.9983 33.3346 39.9983C34.2563 39.9983 35.0013 39.2517 35.0013 38.3317V36.665C37.758 36.665 40.0013 34.4217 40.0013 31.665C40.0013 29.3983 38.378 27.4833 36.143 27.1117ZM12.5013 25H21.668C22.5896 25 23.3346 24.2533 23.3346 23.3333C23.3346 22.4133 22.5896 21.6667 21.668 21.6667H12.5013C10.2046 21.6667 8.33464 23.5367 8.33464 25.8333V29.1667C8.33464 31.4633 10.2046 33.3333 12.5013 33.3333H21.668C22.5896 33.3333 23.3346 32.5867 23.3346 31.6667C23.3346 30.7467 22.5896 30 21.668 30H12.5013C12.0413 30 11.668 29.6267 11.668 29.1667V25.8333C11.668 25.3733 12.0413 25 12.5013 25ZM10.0013 18.3333H13.3346C14.2546 18.3333 15.0013 17.5867 15.0013 16.6667C15.0013 15.7467 14.2546 15 13.3346 15H10.0013C9.0813 15 8.33464 15.7467 8.33464 16.6667C8.33464 17.5867 9.0813 18.3333 10.0013 18.3333ZM10.0013 11.6667H13.3346C14.2546 11.6667 15.0013 10.92 15.0013 10C15.0013 9.08 14.2546 8.33333 13.3346 8.33333H10.0013C9.0813 8.33333 8.33464 9.08 8.33464 10C8.33464 10.92 9.0813 11.6667 10.0013 11.6667Z" fill="white"/>
</g>
<defs>
<clipPath id="clip0_552_301">
<rect width="40" height="40" fill="white"/>
</clipPath>
</defs>
</svg>
