<svg width="40" height="40" viewBox="0 0 40 40" fill="none" xmlns="http://www.w3.org/2000/svg">
<g clip-path="url(#clip0_552_524)">
<path d="M23.3346 21.6667C23.3373 22.2524 23.1855 22.8285 22.8947 23.337C22.6038 23.8454 22.1841 24.2682 21.6778 24.5628C21.1715 24.8574 20.5965 25.0134 20.0108 25.0151C19.425 25.0167 18.8492 24.864 18.3412 24.5723C17.8333 24.2805 17.4112 23.8601 17.1174 23.3533C16.8237 22.8465 16.6687 22.2713 16.668 21.6855C16.6673 21.0998 16.821 20.5242 17.1136 20.0167C17.4062 19.5093 17.8274 19.0879 18.3346 18.795V11.6667C18.3346 11.2246 18.5102 10.8007 18.8228 10.4882C19.1354 10.1756 19.5593 10 20.0013 10C20.4433 10 20.8673 10.1756 21.1798 10.4882C21.4924 10.8007 21.668 11.2246 21.668 11.6667V18.795C22.1732 19.0855 22.5931 19.5037 22.8856 20.0078C23.1782 20.5118 23.333 21.0839 23.3346 21.6667ZM33.4346 9.23167C35.863 11.8463 37.4755 15.1128 38.0745 18.6305C38.6735 22.1482 38.2329 25.7643 36.8067 29.0353C35.3805 32.3062 33.0308 35.0899 30.0456 37.0449C27.0605 38.9999 23.5697 40.0412 20.0013 40.0412C16.433 40.0412 12.9422 38.9999 9.957 37.0449C6.97184 35.0899 4.6221 32.3062 3.19592 29.0353C1.76974 25.7643 1.32913 22.1482 1.92811 18.6305C2.52709 15.1128 4.13963 11.8463 6.56798 9.23167L5.44798 7.98667C4.76939 8.22554 4.05399 8.34289 3.33465 8.33333C2.89262 8.33333 2.46869 8.15774 2.15613 7.84518C1.84357 7.53262 1.66798 7.10869 1.66798 6.66667C1.66798 6.22464 1.84357 5.80072 2.15613 5.48816C2.46869 5.17559 2.89262 5 3.33465 5C4.64298 5 5.00131 4.64167 5.00131 3.33333C5.00131 2.89131 5.17691 2.46738 5.48947 2.15482C5.80203 1.84226 6.22595 1.66667 6.66798 1.66667C7.11001 1.66667 7.53393 1.84226 7.84649 2.15482C8.15905 2.46738 8.33465 2.89131 8.33465 3.33333C8.34435 4.14438 8.18544 4.9486 7.86798 5.695L9.04465 7.00167C11.7481 4.96712 14.9652 3.72626 18.3346 3.41833V1.66667C18.3346 1.22464 18.5102 0.800716 18.8228 0.488155C19.1354 0.175595 19.5593 0 20.0013 0C20.4433 0 20.8673 0.175595 21.1798 0.488155C21.4924 0.800716 21.668 1.22464 21.668 1.66667V3.41833C25.0373 3.72577 28.2543 4.96605 30.958 7L32.1346 5.69333C31.8174 4.94745 31.6585 4.14382 31.668 3.33333C31.668 2.89131 31.8436 2.46738 32.1561 2.15482C32.4687 1.84226 32.8926 1.66667 33.3346 1.66667C33.7767 1.66667 34.2006 1.84226 34.5132 2.15482C34.8257 2.46738 35.0013 2.89131 35.0013 3.33333C35.0013 4.64167 35.3596 5 36.668 5C37.11 5 37.5339 5.17559 37.8465 5.48816C38.159 5.80072 38.3346 6.22464 38.3346 6.66667C38.3346 7.10869 38.159 7.53262 37.8465 7.84518C37.5339 8.15774 37.11 8.33333 36.668 8.33333C35.9486 8.34289 35.2332 8.22554 34.5546 7.98667L33.4346 9.23167ZM35.0013 21.6667C35.0013 18.6999 34.1216 15.7999 32.4734 13.3331C30.8251 10.8664 28.4825 8.94379 25.7416 7.80847C23.0007 6.67316 19.9847 6.37611 17.075 6.95489C14.1652 7.53367 11.4925 8.96228 9.39471 11.0601C7.29692 13.1579 5.86831 15.8306 5.28953 18.7403C4.71075 21.65 5.0078 24.666 6.14312 27.4069C7.27843 30.1478 9.20102 32.4905 11.6678 34.1387C14.1345 35.7869 17.0346 36.6667 20.0013 36.6667C23.9782 36.6623 27.791 35.0805 30.603 32.2684C33.4151 29.4563 34.9969 25.6436 35.0013 21.6667Z" fill="#FF9900"/>
</g>
<defs>
<clipPath id="clip0_552_524">
<rect width="40" height="40" fill="white"/>
</clipPath>
</defs>
</svg>
