<svg width="16" height="17" viewBox="0 0 16 17" fill="none" xmlns="http://www.w3.org/2000/svg">
<g clip-path="url(#clip0_527_258)">
<path d="M8 0.5C6.41775 0.5 4.87104 0.969192 3.55544 1.84824C2.23985 2.72729 1.21447 3.97672 0.608967 5.43853C0.00346629 6.90034 -0.15496 8.50887 0.153721 10.0607C0.462403 11.6126 1.22433 13.038 2.34315 14.1569C3.46197 15.2757 4.88743 16.0376 6.43928 16.3463C7.99113 16.655 9.59966 16.4965 11.0615 15.891C12.5233 15.2855 13.7727 14.2602 14.6518 12.9446C15.5308 11.629 16 10.0823 16 8.5C15.9977 6.37897 15.1541 4.34547 13.6543 2.84568C12.1545 1.34589 10.121 0.502294 8 0.5ZM8 15.1667C6.68146 15.1667 5.39253 14.7757 4.2962 14.0431C3.19987 13.3106 2.34539 12.2694 1.84081 11.0512C1.33622 9.83305 1.2042 8.49261 1.46144 7.1994C1.71867 5.90619 2.35361 4.71831 3.28596 3.78596C4.21831 2.85361 5.4062 2.21867 6.6994 1.96143C7.99261 1.7042 9.33305 1.83622 10.5512 2.3408C11.7694 2.84539 12.8106 3.69987 13.5431 4.7962C14.2757 5.89253 14.6667 7.18146 14.6667 8.5C14.6647 10.2675 13.9617 11.9621 12.7119 13.2119C11.4621 14.4617 9.76752 15.1647 8 15.1667Z" fill="#060918"/>
<path d="M8.00159 4.5C7.82478 4.5 7.65521 4.57024 7.53019 4.69526C7.40516 4.82029 7.33493 4.98986 7.33493 5.16667V8.05L5.08759 9.458C4.9373 9.55189 4.83046 9.70163 4.79058 9.87429C4.7507 10.0469 4.78104 10.2284 4.87493 10.3787C4.96881 10.529 5.11856 10.6358 5.29121 10.6757C5.46387 10.7156 5.6453 10.6852 5.79559 10.5913L8.35559 8.99133C8.45232 8.93073 8.53186 8.84631 8.58661 8.74616C8.64135 8.646 8.66947 8.53347 8.66826 8.41933V5.16667C8.66826 4.98986 8.59802 4.82029 8.473 4.69526C8.34797 4.57024 8.1784 4.5 8.00159 4.5Z" fill="#060918"/>
</g>
<defs>
<clipPath id="clip0_527_258">
<rect width="16" height="16" fill="white" transform="translate(0 0.5)"/>
</clipPath>
</defs>
</svg>
