<svg width="16" height="17" viewBox="0 0 16 17" fill="none" xmlns="http://www.w3.org/2000/svg">
<g clip-path="url(#clip0_527_252)">
<path d="M7.97669 16.5053L7.51197 16.107C6.87131 15.5705 1.27734 10.7394 1.27734 7.20551C1.27734 3.50557 4.27675 0.506165 7.97669 0.506165C11.6766 0.506165 14.676 3.50557 14.676 7.20551C14.676 10.7394 9.08206 15.5706 8.44406 16.1096L7.97669 16.5053ZM7.97669 1.95476C5.07816 1.95804 2.72925 4.30695 2.72597 7.20548C2.72597 9.42554 6.16759 12.972 7.97669 14.5953C9.78581 12.9714 13.2274 9.42285 13.2274 7.20548C13.2241 4.30695 10.8752 1.95807 7.97669 1.95476Z" fill="#060918"/>
<path d="M7.97587 9.86111C6.50925 9.86111 5.32031 8.67218 5.32031 7.20555C5.32031 5.73893 6.50925 4.54999 7.97587 4.54999C9.4425 4.54999 10.6314 5.73893 10.6314 7.20555C10.6314 8.67218 9.44253 9.86111 7.97587 9.86111ZM7.97587 5.87774C7.24256 5.87774 6.64809 6.47221 6.64809 7.20552C6.64809 7.93883 7.24256 8.5333 7.97587 8.5333C8.70919 8.5333 9.30366 7.93883 9.30366 7.20552C9.30366 6.47221 8.70922 5.87774 7.97587 5.87774Z" fill="#060918"/>
</g>
<defs>
<clipPath id="clip0_527_252">
<rect width="16" height="16" fill="white" transform="translate(0 0.5)"/>
</clipPath>
</defs>
</svg>
