<svg width="16" height="17" viewBox="0 0 16 17" fill="none" xmlns="http://www.w3.org/2000/svg">
<g clip-path="url(#clip0_532_792)">
<path d="M7.97669 16.5053L7.51197 16.1069C6.87131 15.5705 1.27734 10.7393 1.27734 7.20545C1.27734 3.50551 4.27675 0.506104 7.97669 0.506104C11.6766 0.506104 14.676 3.50551 14.676 7.20545C14.676 10.7394 9.08206 15.5705 8.44406 16.1096L7.97669 16.5053ZM7.97669 1.9547C5.07816 1.95798 2.72925 4.30689 2.72597 7.20542C2.72597 9.42548 6.16759 12.972 7.97669 14.5952C9.78581 12.9713 13.2274 9.42279 13.2274 7.20542C13.2241 4.30689 10.8752 1.95801 7.97669 1.9547Z" fill="white"/>
<path d="M7.97587 9.86093C6.50925 9.86093 5.32031 8.67199 5.32031 7.20537C5.32031 5.73874 6.50925 4.5498 7.97587 4.5498C9.4425 4.5498 10.6314 5.73874 10.6314 7.20537C10.6314 8.67199 9.44253 9.86093 7.97587 9.86093ZM7.97587 5.87755C7.24256 5.87755 6.64809 6.47202 6.64809 7.20534C6.64809 7.93865 7.24256 8.53312 7.97587 8.53312C8.70919 8.53312 9.30366 7.93865 9.30366 7.20534C9.30366 6.47202 8.70922 5.87755 7.97587 5.87755Z" fill="white"/>
</g>
<defs>
<clipPath id="clip0_532_792">
<rect width="16" height="16" fill="white" transform="translate(0 0.5)"/>
</clipPath>
</defs>
</svg>
