<svg width="20" height="21" viewBox="0 0 20 21" fill="none" xmlns="http://www.w3.org/2000/svg">
<path d="M10 0.5C8.02219 0.5 6.08879 1.08649 4.4443 2.1853C2.79981 3.28412 1.51809 4.8459 0.761209 6.67317C0.0043329 8.50043 -0.193701 10.5111 0.192152 12.4509C0.578004 14.3907 1.53041 16.1725 2.92894 17.5711C4.32746 18.9696 6.10929 19.922 8.0491 20.3079C9.98891 20.6937 11.9996 20.4957 13.8268 19.7388C15.6541 18.9819 17.2159 17.7002 18.3147 16.0557C19.4135 14.4112 20 12.4778 20 10.5C19.9971 7.84872 18.9426 5.30684 17.0679 3.4321C15.1932 1.55736 12.6513 0.502868 10 0.5ZM13.3333 11.3333H10.8333V13.8333C10.8333 14.0543 10.7455 14.2663 10.5893 14.4226C10.433 14.5789 10.221 14.6667 10 14.6667C9.77899 14.6667 9.56703 14.5789 9.41075 14.4226C9.25447 14.2663 9.16667 14.0543 9.16667 13.8333V11.3333H6.66667C6.44566 11.3333 6.2337 11.2455 6.07742 11.0893C5.92114 10.933 5.83334 10.721 5.83334 10.5C5.83334 10.279 5.92114 10.067 6.07742 9.91074C6.2337 9.75446 6.44566 9.66667 6.66667 9.66667H9.16667V7.16667C9.16667 6.94565 9.25447 6.73369 9.41075 6.57741C9.56703 6.42113 9.77899 6.33333 10 6.33333C10.221 6.33333 10.433 6.42113 10.5893 6.57741C10.7455 6.73369 10.8333 6.94565 10.8333 7.16667V9.66667H13.3333C13.5544 9.66667 13.7663 9.75446 13.9226 9.91074C14.0789 10.067 14.1667 10.279 14.1667 10.5C14.1667 10.721 14.0789 10.933 13.9226 11.0893C13.7663 11.2455 13.5544 11.3333 13.3333 11.3333Z" fill="#24B428"/>
</svg>
