<svg width="20" height="21" viewBox="0 0 20 21" fill="none" xmlns="http://www.w3.org/2000/svg">
<g clip-path="url(#clip0_611_692)">
<path d="M10 0.5C4.48583 0.5 0 4.98583 0 10.5C0 16.0142 4.48583 20.5 10 20.5C15.5142 20.5 20 16.0142 20 10.5C20 4.98583 15.5142 0.5 10 0.5ZM13.3333 11.3333H6.66667C6.20667 11.3333 5.83333 10.96 5.83333 10.5C5.83333 10.04 6.20667 9.66667 6.66667 9.66667H13.3333C13.7933 9.66667 14.1667 10.04 14.1667 10.5C14.1667 10.96 13.7933 11.3333 13.3333 11.3333Z" fill="#A5A7B3"/>
</g>
<defs>
<clipPath id="clip0_611_692">
<rect width="20" height="20" fill="white" transform="translate(0 0.5)"/>
</clipPath>
</defs>
</svg>
