<svg width="28" height="28" viewBox="0 0 28 28" fill="none" xmlns="http://www.w3.org/2000/svg">
<rect width="28" height="28" rx="14" fill="#EB5757"/>
<g clip-path="url(#clip0_575_134)">
<path d="M19.8534 8.14639C19.7596 8.05266 19.6325 8 19.4999 8C19.3673 8 19.2402 8.05266 19.1464 8.14639L13.9999 13.2929L8.85339 8.14639C8.75963 8.05266 8.63248 8 8.49989 8C8.36731 8 8.24016 8.05266 8.14639 8.14639C8.05266 8.24016 8 8.36731 8 8.49989C8 8.63248 8.05266 8.75963 8.14639 8.85339L13.2929 13.9999L8.14639 19.1464C8.05266 19.2402 8 19.3673 8 19.4999C8 19.6325 8.05266 19.7596 8.14639 19.8534C8.24016 19.9471 8.36731 19.9998 8.49989 19.9998C8.63248 19.9998 8.75963 19.9471 8.85339 19.8534L13.9999 14.7069L19.1464 19.8534C19.2402 19.9471 19.3673 19.9998 19.4999 19.9998C19.6325 19.9998 19.7596 19.9471 19.8534 19.8534C19.9471 19.7596 19.9998 19.6325 19.9998 19.4999C19.9998 19.3673 19.9471 19.2402 19.8534 19.1464L14.7069 13.9999L19.8534 8.85339C19.9471 8.75963 19.9998 8.63248 19.9998 8.49989C19.9998 8.36731 19.9471 8.24016 19.8534 8.14639Z" fill="white"/>
</g>
<defs>
<clipPath id="clip0_575_134">
<rect width="12" height="12" fill="white" transform="translate(8 8)"/>
</clipPath>
</defs>
</svg>
