<svg width="24" height="24" viewBox="0 0 24 24" fill="none" xmlns="http://www.w3.org/2000/svg">
<g clip-path="url(#clip0_550_181)">
<path d="M4.00078 6.00005C3.60654 6.00109 3.216 5.92393 2.85176 5.77306C2.48752 5.62218 2.15682 5.40057 1.87878 5.12105L0.334784 3.74705C0.136667 3.57042 0.0168323 3.32232 0.00164182 3.05733C-0.0135486 2.79234 0.0771495 2.53217 0.253784 2.33405C0.430418 2.13594 0.678519 2.0161 0.943508 2.00091C1.2085 1.98572 1.46867 2.07642 1.66678 2.25305L3.25178 3.66705C3.34252 3.76895 3.45315 3.8512 3.57686 3.90874C3.70057 3.96629 3.83475 3.9979 3.97114 4.00165C4.10753 4.0054 4.24324 3.98119 4.36993 3.93053C4.49661 3.87987 4.61159 3.80382 4.70778 3.70705L8.31178 0.276055C8.50558 0.103525 8.75884 0.0130738 9.01809 0.0238058C9.27733 0.0345378 9.52225 0.145613 9.70113 0.33357C9.88 0.521527 9.97881 0.771649 9.97669 1.03111C9.97458 1.29056 9.8717 1.53904 9.68978 1.72405L6.10078 5.13805C5.82456 5.41267 5.49691 5.63015 5.13658 5.77806C4.77624 5.92597 4.39029 6.0014 4.00078 6.00005ZM24.0008 4.00005C24.0008 3.73484 23.8954 3.48048 23.7079 3.29295C23.5204 3.10541 23.266 3.00005 23.0008 3.00005H13.0008C12.7356 3.00005 12.4812 3.10541 12.2937 3.29295C12.1061 3.48048 12.0008 3.73484 12.0008 4.00005C12.0008 4.26527 12.1061 4.51963 12.2937 4.70716C12.4812 4.8947 12.7356 5.00005 13.0008 5.00005H23.0008C23.266 5.00005 23.5204 4.8947 23.7079 4.70716C23.8954 4.51963 24.0008 4.26527 24.0008 4.00005ZM6.10078 13.1381L9.68978 9.72405C9.78996 9.63487 9.87116 9.52645 9.92858 9.40525C9.98599 9.28404 10.0184 9.15252 10.024 9.01852C10.0295 8.88452 10.0081 8.75077 9.96087 8.62523C9.91367 8.49969 9.8417 8.38493 9.74924 8.28778C9.65678 8.19062 9.54573 8.11306 9.42268 8.0597C9.29963 8.00635 9.16711 7.97829 9.033 7.97719C8.89888 7.9761 8.76592 8.00199 8.64202 8.05334C8.51812 8.10468 8.40581 8.18042 8.31178 8.27605L4.71178 11.7071C4.52142 11.8891 4.26818 11.9907 4.00478 11.9907C3.74139 11.9907 3.48815 11.8891 3.29778 11.7071L1.70778 10.1221C1.51918 9.9399 1.26658 9.8391 1.00438 9.84138C0.742186 9.84366 0.491373 9.94883 0.305965 10.1342C0.120557 10.3196 0.0153881 10.5705 0.0131097 10.8327C0.0108312 11.0948 0.111626 11.3475 0.293784 11.5361L1.87878 13.1211C2.43846 13.6809 3.1967 13.9968 3.98828 14C4.77986 14.0031 5.54063 13.6933 6.10478 13.1381H6.10078ZM24.0008 12.0001C24.0008 11.7348 23.8954 11.4805 23.7079 11.2929C23.5204 11.1054 23.266 11.0001 23.0008 11.0001H13.0008C12.7356 11.0001 12.4812 11.1054 12.2937 11.2929C12.1061 11.4805 12.0008 11.7348 12.0008 12.0001C12.0008 12.2653 12.1061 12.5196 12.2937 12.7072C12.4812 12.8947 12.7356 13.0001 13.0008 13.0001H23.0008C23.266 13.0001 23.5204 12.8947 23.7079 12.7072C23.8954 12.5196 24.0008 12.2653 24.0008 12.0001ZM6.10078 21.1381L9.68578 17.7241C9.78596 17.6349 9.86716 17.5265 9.92458 17.4052C9.98199 17.284 10.0144 17.1525 10.02 17.0185C10.0255 16.8845 10.0041 16.7508 9.95687 16.6252C9.90967 16.4997 9.8377 16.3849 9.74524 16.2878C9.65278 16.1906 9.54173 16.1131 9.41868 16.0597C9.29563 16.0063 9.16311 15.9783 9.029 15.9772C8.89489 15.9761 8.76192 16.002 8.63802 16.0533C8.51412 16.1047 8.40181 16.1804 8.30778 16.2761L4.70778 19.7071C4.61159 19.8038 4.49661 19.8799 4.36993 19.9305C4.24324 19.9812 4.10753 20.0054 3.97114 20.0017C3.83475 19.9979 3.70057 19.9663 3.57686 19.9087C3.45315 19.8512 3.34252 19.769 3.25178 19.6671L1.66678 18.2531C1.46867 18.0764 1.2085 17.9857 0.943508 18.0009C0.678519 18.0161 0.430418 18.1359 0.253784 18.3341C0.0771495 18.5322 -0.0135486 18.7923 0.00164182 19.0573C0.0168323 19.3223 0.136667 19.5704 0.334784 19.7471L1.87878 21.1211C2.43846 21.6809 3.1967 21.9968 3.98828 22C4.77986 22.0031 5.54063 21.6933 6.10478 21.1381H6.10078ZM24.0008 20.0001C24.0008 19.7348 23.8954 19.4805 23.7079 19.2929C23.5204 19.1054 23.266 19.0001 23.0008 19.0001H13.0008C12.7356 19.0001 12.4812 19.1054 12.2937 19.2929C12.1061 19.4805 12.0008 19.7348 12.0008 20.0001C12.0008 20.2653 12.1061 20.5196 12.2937 20.7072C12.4812 20.8947 12.7356 21.0001 13.0008 21.0001H23.0008C23.266 21.0001 23.5204 20.8947 23.7079 20.7072C23.8954 20.5196 24.0008 20.2653 24.0008 20.0001Z" fill="white"/>
</g>
<defs>
<clipPath id="clip0_550_181">
<rect width="24" height="24" fill="white"/>
</clipPath>
</defs>
</svg>
