<svg width="24" height="24" viewBox="0 0 24 24" fill="none" xmlns="http://www.w3.org/2000/svg">
<g clip-path="url(#clip0_550_132)">
<path d="M4.00078 5.99999C3.60654 6.00103 3.216 5.92387 2.85176 5.77299C2.48752 5.62212 2.15682 5.40051 1.87878 5.12099L0.334784 3.74699C0.136667 3.57036 0.0168323 3.32226 0.00164182 3.05727C-0.0135486 2.79228 0.0771495 2.53211 0.253784 2.33399C0.430418 2.13588 0.678519 2.01604 0.943508 2.00085C1.2085 1.98566 1.46867 2.07636 1.66678 2.25299L3.25178 3.66699C3.34252 3.76889 3.45315 3.85114 3.57686 3.90868C3.70057 3.96623 3.83475 3.99784 3.97114 4.00159C4.10753 4.00534 4.24324 3.98113 4.36993 3.93047C4.49661 3.87981 4.61159 3.80375 4.70778 3.70699L8.31178 0.275994C8.50558 0.103464 8.75884 0.0130128 9.01809 0.0237448C9.27733 0.0344768 9.52225 0.145552 9.70113 0.333509C9.88 0.521466 9.97881 0.771588 9.97669 1.03105C9.97458 1.2905 9.8717 1.53898 9.68978 1.72399L6.10078 5.13799C5.82456 5.41261 5.49691 5.63009 5.13658 5.778C4.77624 5.92591 4.39029 6.00134 4.00078 5.99999ZM24.0008 3.99999C24.0008 3.73478 23.8954 3.48042 23.7079 3.29289C23.5204 3.10535 23.266 2.99999 23.0008 2.99999H13.0008C12.7356 2.99999 12.4812 3.10535 12.2937 3.29289C12.1061 3.48042 12.0008 3.73478 12.0008 3.99999C12.0008 4.26521 12.1061 4.51956 12.2937 4.7071C12.4812 4.89464 12.7356 4.99999 13.0008 4.99999H23.0008C23.266 4.99999 23.5204 4.89464 23.7079 4.7071C23.8954 4.51956 24.0008 4.26521 24.0008 3.99999ZM6.10078 13.138L9.68978 9.72399C9.78996 9.63481 9.87116 9.52639 9.92858 9.40519C9.98599 9.28398 10.0184 9.15246 10.024 9.01846C10.0295 8.88446 10.0081 8.75071 9.96087 8.62517C9.91367 8.49963 9.8417 8.38487 9.74924 8.28772C9.65678 8.19056 9.54573 8.113 9.42268 8.05964C9.29963 8.00629 9.16711 7.97823 9.033 7.97713C8.89888 7.97604 8.76592 8.00193 8.64202 8.05328C8.51812 8.10462 8.40581 8.18036 8.31178 8.27599L4.71178 11.707C4.52142 11.889 4.26818 11.9906 4.00478 11.9906C3.74139 11.9906 3.48815 11.889 3.29778 11.707L1.70778 10.122C1.51918 9.93983 1.26658 9.83904 1.00438 9.84132C0.742186 9.8436 0.491373 9.94877 0.305965 10.1342C0.120557 10.3196 0.0153881 10.5704 0.0131097 10.8326C0.0108312 11.0948 0.111626 11.3474 0.293784 11.536L1.87878 13.121C2.43846 13.6808 3.1967 13.9967 3.98828 13.9999C4.77986 14.0031 5.54063 13.6933 6.10478 13.138H6.10078ZM24.0008 12C24.0008 11.7348 23.8954 11.4804 23.7079 11.2929C23.5204 11.1054 23.266 11 23.0008 11H13.0008C12.7356 11 12.4812 11.1054 12.2937 11.2929C12.1061 11.4804 12.0008 11.7348 12.0008 12C12.0008 12.2652 12.1061 12.5196 12.2937 12.7071C12.4812 12.8946 12.7356 13 13.0008 13H23.0008C23.266 13 23.5204 12.8946 23.7079 12.7071C23.8954 12.5196 24.0008 12.2652 24.0008 12ZM6.10078 21.138L9.68578 17.724C9.78596 17.6348 9.86716 17.5264 9.92458 17.4052C9.98199 17.284 10.0144 17.1525 10.02 17.0185C10.0255 16.8845 10.0041 16.7507 9.95687 16.6252C9.90967 16.4996 9.8377 16.3849 9.74524 16.2877C9.65278 16.1906 9.54173 16.113 9.41868 16.0596C9.29563 16.0063 9.16311 15.9782 9.029 15.9771C8.89489 15.976 8.76192 16.0019 8.63802 16.0533C8.51412 16.1046 8.40181 16.1804 8.30778 16.276L4.70778 19.707C4.61159 19.8038 4.49661 19.8798 4.36993 19.9305C4.24324 19.9811 4.10753 20.0053 3.97114 20.0016C3.83475 19.9978 3.70057 19.9662 3.57686 19.9087C3.45315 19.8511 3.34252 19.7689 3.25178 19.667L1.66678 18.253C1.46867 18.0764 1.2085 17.9857 0.943508 18.0009C0.678519 18.016 0.430418 18.1359 0.253784 18.334C0.0771495 18.5321 -0.0135486 18.7923 0.00164182 19.0573C0.0168323 19.3223 0.136667 19.5704 0.334784 19.747L1.87878 21.121C2.43846 21.6808 3.1967 21.9967 3.98828 21.9999C4.77986 22.0031 5.54063 21.6933 6.10478 21.138H6.10078ZM24.0008 20C24.0008 19.7348 23.8954 19.4804 23.7079 19.2929C23.5204 19.1054 23.266 19 23.0008 19H13.0008C12.7356 19 12.4812 19.1054 12.2937 19.2929C12.1061 19.4804 12.0008 19.7348 12.0008 20C12.0008 20.2652 12.1061 20.5196 12.2937 20.7071C12.4812 20.8946 12.7356 21 13.0008 21H23.0008C23.266 21 23.5204 20.8946 23.7079 20.7071C23.8954 20.5196 24.0008 20.2652 24.0008 20Z" fill="#5729D6"/>
</g>
<defs>
<clipPath id="clip0_550_132">
<rect width="24" height="24" fill="white"/>
</clipPath>
</defs>
</svg>
