<svg width="40" height="40" viewBox="0 0 40 40" fill="none" xmlns="http://www.w3.org/2000/svg">
<path d="M31.6667 5.03667C31.6667 5.02333 31.6667 5.01333 31.6667 5V1.66667C31.6667 1.22464 31.4911 0.800716 31.1785 0.488155C30.866 0.175595 30.442 0 30 0C29.558 0 29.134 0.175595 28.8215 0.488155C28.5089 0.800716 28.3333 1.22464 28.3333 1.66667V3.5C27.7848 3.38861 27.2264 3.33277 26.6667 3.33333H25V1.66667C25 1.22464 24.8244 0.800716 24.5118 0.488155C24.1993 0.175595 23.7754 0 23.3333 0C22.8913 0 22.4674 0.175595 22.1548 0.488155C21.8423 0.800716 21.6667 1.22464 21.6667 1.66667V3.33333H18.3333V1.66667C18.3333 1.22464 18.1577 0.800716 17.8452 0.488155C17.5326 0.175595 17.1087 0 16.6667 0C16.2246 0 15.8007 0.175595 15.4882 0.488155C15.1756 0.800716 15 1.22464 15 1.66667V3.33333H13.3333C12.7736 3.33277 12.2152 3.38861 11.6667 3.5V1.66667C11.6667 1.22464 11.4911 0.800716 11.1785 0.488155C10.866 0.175595 10.442 0 10 0C9.55797 0 9.13405 0.175595 8.82149 0.488155C8.50893 0.800716 8.33333 1.22464 8.33333 1.66667V5V5.03667C7.30131 5.80729 6.46283 6.80756 5.88428 7.95831C5.30572 9.10905 5.00297 10.3787 5 11.6667V31.6667C5.00265 33.876 5.88147 35.9941 7.4437 37.5563C9.00593 39.1185 11.124 39.9974 13.3333 40H26.6667C28.876 39.9974 30.9941 39.1185 32.5563 37.5563C34.1185 35.9941 34.9974 33.876 35 31.6667V11.6667C34.997 10.3787 34.6943 9.10905 34.1157 7.95831C33.5372 6.80756 32.6987 5.80729 31.6667 5.03667ZM31.6667 31.6667C31.6667 32.9927 31.1399 34.2645 30.2022 35.2022C29.2645 36.1399 27.9927 36.6667 26.6667 36.6667H13.3333C12.0073 36.6667 10.7355 36.1399 9.7978 35.2022C8.86012 34.2645 8.33333 32.9927 8.33333 31.6667V11.6667C8.33333 10.3406 8.86012 9.06881 9.7978 8.13113C10.7355 7.19345 12.0073 6.66667 13.3333 6.66667H26.6667C27.9927 6.66667 29.2645 7.19345 30.2022 8.13113C31.1399 9.06881 31.6667 10.3406 31.6667 11.6667V31.6667ZM28.3333 13.3333C28.3333 13.7754 28.1577 14.1993 27.8452 14.5118C27.5326 14.8244 27.1087 15 26.6667 15H13.3333C12.8913 15 12.4674 14.8244 12.1548 14.5118C11.8423 14.1993 11.6667 13.7754 11.6667 13.3333C11.6667 12.8913 11.8423 12.4674 12.1548 12.1548C12.4674 11.8423 12.8913 11.6667 13.3333 11.6667H26.6667C27.1087 11.6667 27.5326 11.8423 27.8452 12.1548C28.1577 12.4674 28.3333 12.8913 28.3333 13.3333ZM28.3333 20C28.3333 20.442 28.1577 20.8659 27.8452 21.1785C27.5326 21.4911 27.1087 21.6667 26.6667 21.6667H13.3333C12.8913 21.6667 12.4674 21.4911 12.1548 21.1785C11.8423 20.8659 11.6667 20.442 11.6667 20C11.6667 19.558 11.8423 19.134 12.1548 18.8215C12.4674 18.5089 12.8913 18.3333 13.3333 18.3333H26.6667C27.1087 18.3333 27.5326 18.5089 27.8452 18.8215C28.1577 19.134 28.3333 19.558 28.3333 20ZM21.6667 26.6667C21.6667 27.1087 21.4911 27.5326 21.1785 27.8452C20.8659 28.1577 20.442 28.3333 20 28.3333H13.3333C12.8913 28.3333 12.4674 28.1577 12.1548 27.8452C11.8423 27.5326 11.6667 27.1087 11.6667 26.6667C11.6667 26.2246 11.8423 25.8007 12.1548 25.4882C12.4674 25.1756 12.8913 25 13.3333 25H20C20.442 25 20.8659 25.1756 21.1785 25.4882C21.4911 25.8007 21.6667 26.2246 21.6667 26.6667Z" fill="white"/>
</svg>
